<?xml version="1.0" standalone="no"?><!DOCTYPE svg PUBLIC "-//W3C//DTD SVG 1.1//EN" "http://www.w3.org/Graphics/SVG/1.1/DTD/svg11.dtd"><svg t="1592406557203" class="icon" viewBox="0 0 1024 1024" version="1.1" xmlns="http://www.w3.org/2000/svg" p-id="10314" xmlns:xlink="http://www.w3.org/1999/xlink" width="200" height="200"><defs><style type="text/css"></style></defs><path d="M443.739107 204.016024v-18.345115l-1.279892-19.625007c0-5.546198-2.133153-14.078809-5.972828-25.597835-3.839675-11.092395-5.546198-20.904898-5.546197-29.43751a17.065223 17.065223 0 0 1 7.25272-14.078809l14.93207-11.945656a40.103275 40.103275 0 0 1 26.024465-7.679351c6.826089 0 17.491854 0.853261 32.850555 2.986414 13.225548 0 23.038051-2.986414 29.864141-8.532611l15.785331-11.092396c7.25272-5.972828 11.092395-12.372287 11.092395-19.625006 0-12.372287-6.826089-22.18479-20.478268-29.864141A107.510906 107.510906 0 0 0 496.214669 0.086606l-58.021759 4.266306c-13.225548 0-38.396752 2.986414-75.513613 8.959242-37.116861 6.399459-65.701109 9.385873-86.606008 9.385873-8.532612 0-23.038051-1.706522-43.516319-5.119567A324.665872 324.665872 0 0 0 183.494453 12.885523l-31.997294 10.239134c-11.092395 3.413045-16.211962 8.532612-16.211962 14.932071l2.559784 12.798917c5.972828 11.945656 14.50544 21.331529 25.597834 27.730988l11.519026 5.972828c5.546198 1.706522 10.239134 2.559783 14.078809 2.559783 4.692936 0 11.945656 0 21.331529-1.279891a42.663058 42.663058 0 0 1 21.331529 5.546197l15.785332 14.078809c7.67935 8.532612 12.798917 17.065223 16.211962 24.744574 3.413045 7.67935 5.119567 14.93207 5.119567 21.331529 0 5.119567-0.853261 12.798917-2.986414 24.317943-1.706522 11.092395-2.559783 20.051637-2.559784 26.451096 0 8.532612 2.133153 20.904898 6.399459 36.69023 4.266306 15.785331 6.399459 29.010879 6.399459 39.250014-1.279892 16.211962-1.706522 31.997294-1.706523 47.782625v47.782625c0 12.372287 1.279892 28.157618 2.986415 47.782625 1.706522 19.625007 2.986414 35.410338 2.986414 46.929364l-2.986414 58.448389-1.279892 94.285359-4.266306 77.220135c0 10.665765 1.706522 23.891313 5.546198 40.956536 3.839675 17.065223 5.546198 30.290771 5.546197 40.529905 0 10.665765-1.279892 23.464682-4.266306 39.676644a151.880487 151.880487 0 0 0-2.986414 56.315236c1.279892 7.25272 1.279892 12.798917 0 17.065224a34.130446 34.130446 0 0 1-7.67935 15.785331l-13.225548 16.211962c-8.532612 10.239134-18.345115 18.345115-28.584249 23.891313-10.239134 5.546198-25.171204 8.532612-43.94295 9.812503-19.198376 0.853261-32.850555 4.692936-41.383166 11.945656-8.532612 6.826089-12.798917 12.372287-12.798918 16.211962 0 24.317943 22.611421 36.263599 68.260893 36.2636l9.812504-1.279892 81.913071-8.532612c13.652179-0.853261 29.864141-1.279892 47.782625-1.279891h17.065223l51.19567 1.279891h136.521786l37.543491-3.413044c11.945656-1.279892 22.611421-2.133153 31.997294-2.133153 12.372287 0 29.43751 2.986414 51.195669 9.385873 21.75816 5.972828 40.103275 8.105981 55.461976 5.972828l16.211962-4.266306c10.239134-2.559783 19.625007-4.266306 29.43751-4.266306l19.198376 2.559784c11.519026 1.279892 21.331529 2.133153 29.01088 2.133153 3.839675 0 10.239134-1.279892 20.051637-2.986414 23.464682-4.692936 40.103275-13.652179 49.489147-26.877727 6.826089-9.385873 10.239134-17.918484 10.239134-26.451096a224.834316 224.834316 0 0 1-4.266306-57.595128c4.266306-9.385873 9.812503-18.771746 15.358701-28.157619 4.692936-12.372287 8.532612-29.010879 10.239134-49.915778 1.706522-21.331529 3.413045-35.410338 4.692937-42.236427 1.706522-6.826089 5.546198-17.918484 12.372286-32.423924 6.399459-14.50544 9.812503-26.877727 9.812504-37.116861 0-11.092395-2.559783-21.331529-7.25272-29.864141-4.266306-8.105981-10.665765-12.372287-18.345115-12.372286-4.692936 0-12.372287 4.266306-22.611421 12.798917-4.692936 3.839675-8.532612 10.665765-12.372287 21.331529-2.986414 9.812503-5.972828 17.065223-7.67935 20.904898-11.519026 17.065223-22.611421 33.277185-34.130447 49.062517a230.380514 230.380514 0 0 0-14.078809 26.451096c-9.812503 20.051637-17.065223 33.277185-23.038051 40.956536a183.45115 183.45115 0 0 1-22.611421 21.331529c-4.692936 3.413045-9.385873 8.532612-13.652178 14.50544s-10.239134 15.785331-17.491854 29.010879l-24.317943 12.798918-17.065224 4.266306c-5.546198 0.426631-13.225548 2.986414-22.61142 6.826089-9.812503 3.413045-17.065223 5.972828-21.331529 6.826089-4.692936 0.853261-11.092395 1.279892-18.771746 1.279892-8.532612 0-21.331529-1.279892-38.396752-4.266306-17.065223-2.559783-30.717402-4.266306-40.956536-4.266306l-29.864141 1.706523c-34.130446 0-59.728281-18.345115-75.513613-55.035345a399.752854 399.752854 0 0 1-20.478267-199.236482c2.133153-15.358701 3.413045-27.304357 3.413044-36.69023v-98.125033l1.279892-32.423924c1.279892-13.225548 1.706522-22.611421 1.706522-28.157619a130.122327 130.122327 0 0 0-7.25272-45.222841 75.513613 75.513613 0 0 1-5.546197-23.891313c0-4.266306 0.853261-11.092395 2.559783-19.625006 2.133153-8.532612 2.986414-14.93207 2.986414-19.625007l-1.279891-42.236428c-1.279892-17.918484-1.706522-31.997294-1.706523-42.236427 0-11.945656 2.133153-26.877727 5.972829-44.796211 3.839675-17.918484 5.546198-32.423924 5.546197-43.516319z" p-id="10315" fill="#13227a"></path></svg>