<?xml version="1.0" standalone="no"?>
<!DOCTYPE svg PUBLIC "-//W3C//DTD SVG 20010904//EN"
 "http://www.w3.org/TR/2001/REC-SVG-20010904/DTD/svg10.dtd">
<svg version="1.0" xmlns="http://www.w3.org/2000/svg"
 width="409.600000pt" height="409.600000pt" viewBox="0 0 409.600000 409.600000"
 preserveAspectRatio="xMidYMid meet">
<metadata>
Created by potrace 1.13, written by Peter Selinger 2001-2015
</metadata>
<g transform="translate(0.000000,409.600000) scale(0.080000,-0.080000)"
fill="#000000" stroke="none">
<path d="M0 2560 l0 -2560 2560 0 2560 0 0 2560 0 2560 -2560 0 -2560 0 0
-2560z m3674 2015 c469 -55 836 -212 965 -413 38 -61 47 -95 27 -111 -12 -10
-30 -6 -97 25 -148 66 -191 48 -244 -104 -16 -45 -37 -91 -47 -102 -17 -18
-21 -19 -42 -5 -13 9 -65 65 -116 125 -168 200 -247 254 -375 255 -129 0 -240
-75 -310 -210 -17 -32 -43 -71 -59 -88 -40 -39 -71 -35 -261 38 -360 138 -482
151 -666 71 -118 -51 -183 -92 -271 -175 -127 -119 -222 -281 -269 -463 -24
-93 -36 -300 -24 -413 6 -60 10 -69 36 -83 27 -16 29 -21 29 -77 0 -102 -37
-143 -138 -152 -60 -6 -61 -5 -73 23 -49 121 -86 183 -150 247 -162 162 -427
215 -744 147 -121 -26 -291 -92 -336 -130 -30 -25 -33 -31 -24 -55 16 -46 44
-48 123 -10 234 112 477 151 654 106 161 -41 281 -130 341 -250 29 -60 32 -74
32 -161 0 -75 -4 -103 -20 -134 -11 -22 -24 -41 -30 -43 -5 -2 -41 22 -80 53
-88 71 -156 104 -215 104 -61 0 -94 -18 -98 -53 -5 -44 14 -59 72 -55 62 4 69
-15 16 -44 -50 -28 -104 -17 -225 42 -135 68 -236 89 -335 72 -101 -17 -174
-55 -246 -126 -149 -150 -171 -362 -56 -551 13 -22 51 -68 84 -101 l60 -61
-199 -113 c-109 -62 -201 -115 -205 -117 -5 -2 -8 373 -8 834 l0 838 83 16
c169 33 346 123 1040 528 247 144 526 304 620 355 554 302 955 464 1287 521
104 18 340 18 494 0z m-214 -848 c0 -2 -14 -41 -31 -87 -98 -270 -121 -574
-64 -852 54 -261 198 -534 374 -707 l68 -67 -82 -17 c-113 -23 -524 -154 -555
-176 -14 -10 -27 -26 -28 -35 -5 -23 26 -56 51 -56 10 0 119 32 241 71 239 76
354 105 464 115 64 6 76 4 134 -23 34 -16 137 -77 228 -135 326 -208 507 -294
648 -305 l62 -6 0 -46 0 -47 -80 8 c-212 20 -415 100 -713 280 l-148 90 -101
-16 c-56 -9 -187 -39 -292 -66 -208 -54 -263 -66 -374 -80 l-73 -10 -142 77
c-78 41 -149 81 -157 88 -8 6 -69 42 -135 80 -164 94 -167 96 -218 173 -144
218 -217 447 -217 677 0 181 39 322 128 465 53 87 178 215 271 279 59 41 64
43 58 20 -43 -155 -47 -440 -9 -599 39 -163 110 -329 195 -455 99 -148 261
-315 305 -315 29 0 57 43 43 67 -5 10 -50 60 -100 110 -179 185 -293 396 -347
648 -25 118 -23 341 4 465 34 155 42 171 98 202 74 42 184 86 339 139 137 47
155 52 155 46z m609 -650 c89 -36 164 -90 267 -193 120 -120 173 -223 148
-288 -15 -40 -40 -38 -145 14 -66 32 -115 50 -139 50 -83 0 -95 -86 -15 -103
70 -15 73 -17 45 -32 -51 -29 -74 -20 -165 66 -134 126 -213 152 -329 108 -56
-20 -106 -66 -106 -96 0 -22 29 -53 49 -53 9 0 36 14 61 30 86 57 138 41 274
-87 73 -69 116 -93 166 -93 l31 0 -8 -52 c-21 -142 2 -289 68 -422 16 -32 29
-60 29 -62 0 -1 -37 20 -82 48 -94 58 -195 108 -220 108 -26 0 -160 112 -229
193 -183 211 -281 437 -322 739 l-5 36 67 30 c76 34 186 69 258 82 87 16 233
5 302 -23z m-2149 -971 c131 -29 203 -65 805 -406 306 -174 694 -373 865 -445
423 -176 839 -274 1243 -292 l137 -6 0 -49 0 -48 -99 0 c-201 0 -557 41 -820
95 -150 30 -177 31 -191 6 -14 -27 -13 -56 3 -70 16 -13 191 -49 382 -80 190
-30 378 -49 563 -57 l162 -7 0 -129 0 -128 -879 0 -879 0 -6 23 c-3 14 -22 31
-53 46 -149 72 -340 220 -513 398 -178 181 -324 373 -401 525 l-31 61 59 -33
c285 -163 752 -380 816 -380 13 0 28 5 35 12 16 16 15 63 0 76 -7 5 -80 38
-163 72 -177 73 -469 218 -645 320 -69 40 -144 84 -168 98 -35 20 -48 23 -66
14 -34 -15 -37 -43 -12 -114 120 -343 508 -805 881 -1051 50 -32 92 -61 94
-63 2 -2 -59 -4 -136 -4 -128 0 -141 2 -149 19 -5 11 -49 51 -98 90 -446 354
-806 811 -926 1176 -26 80 -44 105 -75 105 -35 0 -221 -56 -345 -103 -371
-142 -869 -397 -1101 -564 -26 -18 -49 -33 -53 -33 -3 0 -6 42 -6 93 l0 93
187 104 c544 302 1105 562 1348 626 105 27 146 29 235 10z m-257 -456 c144
-352 489 -784 875 -1094 39 -32 72 -60 72 -62 0 -2 -553 -4 -1230 -4 l-1230 0
0 278 0 278 122 81 c327 217 823 463 1188 589 69 24 133 42 143 41 12 -1 30
-33 60 -107z m2436 -89 c254 -166 571 -290 789 -307 l82 -7 0 -94 0 -93 -102
5 c-323 18 -592 68 -898 167 -215 70 -632 246 -585 247 11 1 119 26 240 57
192 49 331 80 372 83 7 1 53 -26 102 -58z"/>
<path d="M2586 2605 c-22 -23 -20 -37 13 -103 54 -107 153 -244 249 -344 97
-101 125 -118 161 -98 43 23 27 57 -72 159 -102 105 -159 180 -234 311 -39 68
-54 86 -75 88 -14 2 -33 -4 -42 -13z"/>
<path d="M3433 1076 c-27 -24 -27 -26 -13 -53 14 -25 31 -32 154 -66 112 -31
144 -37 163 -28 24 11 32 52 14 79 -6 10 -261 91 -288 92 -1 0 -15 -11 -30
-24z"/>
<path d="M1518 1229 c-39 -22 -41 -46 -9 -112 40 -83 67 -117 95 -117 26 0 56
29 56 54 0 26 -79 165 -100 176 -22 12 -21 12 -42 -1z"/>
<path d="M1749 877 c-17 -9 -25 -22 -27 -45 -3 -29 7 -42 105 -140 135 -135
184 -170 218 -154 13 6 27 23 31 37 6 24 -8 40 -136 163 -79 75 -148 140 -154
144 -7 4 -23 1 -37 -5z"/>
</g>
</svg>
